<?xml version="1.0" standalone="no"?>
<!DOCTYPE svg PUBLIC "-//W3C//DTD SVG 20010904//EN"
 "http://www.w3.org/TR/2001/REC-SVG-20010904/DTD/svg10.dtd">
<svg version="1.0" xmlns="http://www.w3.org/2000/svg"
 width="280.000000pt" height="280.000000pt" viewBox="0 0 280.000000 280.000000"
 preserveAspectRatio="xMidYMid meet">
<metadata>
Created by potrace 1.11, written by Peter Selinger 2001-2013
</metadata>
<g transform="translate(0.000000,280.000000) scale(0.100000,-0.100000)"
fill="#000000" stroke="none">
<path d="M1148 2699 c18 -19 15 -34 -5 -18 -20 17 -17 18 -44 -6 -12 -11 -20
-15 -16 -10 3 7 -7 10 -26 10 -17 0 -32 -6 -33 -13 -1 -7 0 -8 3 -2 6 12 23 4
23 -11 0 -6 -4 -8 -9 -4 -5 3 -12 1 -16 -5 -4 -6 -10 -8 -15 -5 -5 3 -13 -3
-19 -12 -6 -10 -10 -13 -11 -8 0 19 18 37 30 30 9 -6 9 -3 1 13 -6 12 -17 24
-24 28 -9 6 -9 4 1 -8 10 -12 10 -17 0 -25 -7 -6 -20 -9 -29 -8 -9 2 -16 -3
-16 -11 0 -10 4 -11 14 -3 9 8 13 8 13 0 0 -12 -4 -13 -58 -14 -24 -1 -31 -5
-27 -15 5 -12 3 -13 -10 -2 -9 7 -19 9 -23 5 -4 -4 -1 -10 6 -12 20 -8 13 -22
-9 -18 -16 3 -19 0 -15 -12 5 -13 4 -14 -8 -4 -11 9 -16 9 -21 0 -6 -8 -10 -8
-15 2 -5 7 -18 14 -30 16 -17 2 -19 1 -8 -11 10 -10 15 -11 21 -2 6 7 7 6 4
-4 -2 -8 -12 -17 -22 -18 -11 -3 -15 0 -10 8 6 9 3 9 -11 2 -34 -19 -60 -43
-44 -40 8 2 20 10 27 18 9 11 12 12 13 2 0 -8 5 -10 13 -6 7 4 9 3 4 -2 -5 -5
-13 -10 -18 -10 -5 -1 -11 -3 -14 -4 -13 -6 -31 -5 -42 2 -6 5 -14 5 -18 -2
-3 -6 -10 -8 -15 -5 -5 3 -7 -9 -5 -27 3 -26 2 -29 -6 -15 -11 18 -29 14 -29
-6 0 -7 4 -6 11 3 9 13 10 13 6 0 -2 -8 -10 -14 -16 -12 -6 1 -11 -2 -11 -8 0
-5 -5 -10 -12 -10 -9 0 -9 3 0 12 15 15 15 28 1 28 -5 0 -8 -4 -4 -9 3 -5 1
-12 -5 -16 -6 -4 -8 -11 -5 -16 4 -5 -1 -10 -9 -10 -30 -3 -34 -4 -43 -13 -4
-5 -3 -6 3 -3 7 4 14 0 17 -8 5 -11 1 -12 -18 -5 -20 8 -23 6 -18 -7 4 -10 2
-14 -4 -10 -6 4 -19 -3 -29 -15 -11 -12 -14 -19 -9 -15 6 3 17 1 25 -5 13 -8
13 -9 0 -5 -27 8 -63 -11 -56 -30 6 -14 3 -14 -16 3 -19 16 -20 16 -9 1 12
-15 12 -20 1 -30 -10 -10 -11 -9 -5 2 6 10 4 12 -4 7 -9 -6 -9 -11 0 -22 10
-12 9 -13 -6 -8 -14 6 -16 4 -10 -6 6 -9 4 -11 -4 -6 -7 5 -10 15 -7 23 3 8 2
12 -3 9 -5 -3 -8 -17 -8 -31 0 -14 4 -22 10 -18 6 3 7 1 3 -6 -4 -6 -12 -8
-18 -5 -7 5 -9 1 -5 -9 6 -15 -20 -34 -31 -22 -3 3 0 5 6 5 7 0 12 5 12 11 0
8 -4 9 -13 0 -8 -6 -18 -7 -23 -3 -5 4 0 -3 10 -16 11 -12 16 -25 13 -29 -4
-3 -7 -1 -7 6 0 7 -5 9 -10 6 -6 -4 -8 -10 -5 -15 3 -5 1 -12 -5 -15 -6 -4 -8
-15 -5 -26 4 -10 2 -19 -3 -19 -11 0 -12 32 0 47 6 7 4 14 -3 19 -8 4 -9 3 -5
-5 4 -6 1 -14 -8 -17 -8 -3 -12 -12 -9 -20 3 -9 0 -13 -8 -11 -8 2 -11 2 -6 0
13 -8 7 -25 -8 -20 -8 4 -17 1 -21 -5 -4 -6 -3 -8 2 -5 6 3 16 2 24 -4 11 -6
12 -9 2 -9 -7 0 -11 -4 -7 -9 3 -5 0 -13 -6 -17 -8 -4 -9 -3 -5 4 4 7 2 12 -5
12 -8 0 -9 -10 -5 -31 5 -27 4 -29 -10 -15 -8 9 -20 16 -27 16 -6 0 -2 -7 9
-16 10 -8 14 -13 7 -10 -6 4 -14 2 -18 -4 -3 -5 -1 -10 4 -10 6 0 11 -5 11
-10 0 -7 -8 -6 -22 1 -20 11 -21 10 -11 -3 7 -8 10 -18 6 -22 -4 -4 1 -4 11 0
14 5 17 4 12 -4 -4 -7 -16 -12 -26 -12 -10 0 -22 -5 -26 -11 -4 -7 0 -9 14 -5
12 4 23 2 28 -5 4 -7 3 -9 -2 -6 -6 3 -16 2 -24 -3 -9 -5 -20 -4 -30 3 -13 11
-13 10 -1 -5 7 -10 17 -15 22 -12 5 3 9 0 9 -7 0 -7 -8 -9 -21 -6 -17 4 -19 3
-10 -6 14 -14 15 -30 1 -22 -17 11 -11 -7 8 -21 15 -12 14 -13 -10 -4 -26 9
-27 8 -16 -10 7 -10 16 -16 22 -13 5 3 6 1 2 -6 -4 -6 -11 -9 -16 -6 -4 3 -11
-2 -14 -11 -3 -8 -10 -12 -16 -9 -5 3 -10 1 -10 -4 0 -6 5 -11 11 -11 5 0 8
-4 4 -9 -3 -6 3 -14 12 -20 14 -8 11 -9 -15 -6 -28 3 -31 1 -21 -11 14 -17 23
-19 13 -2 -4 7 -3 8 4 4 9 -5 9 -13 2 -27 -6 -10 -13 -19 -16 -19 -3 0 -2 5 2
12 4 7 3 8 -5 4 -6 -4 -8 -13 -4 -19 11 -17 13 -38 3 -32 -5 3 -12 0 -16 -6
-4 -8 -3 -9 4 -5 7 4 12 0 13 -11 0 -10 2 -26 4 -36 2 -9 -1 -15 -6 -11 -5 3
-6 10 -3 16 4 6 2 8 -4 5 -11 -7 -5 -47 7 -47 12 0 9 -34 -3 -42 -8 -6 -6 -11
4 -19 13 -9 13 -10 0 -6 -8 2 -14 12 -14 21 1 9 -2 16 -7 16 -5 0 -9 -7 -9
-15 0 -8 -4 -15 -10 -15 -5 0 -10 -5 -10 -11 0 -8 4 -8 14 0 11 9 14 6 14 -14
0 -14 -5 -22 -11 -18 -6 3 -7 1 -3 -5 4 -7 2 -12 -4 -12 -8 0 -9 -7 -5 -17 15
-39 15 -55 -2 -49 -12 5 -13 4 -5 -7 7 -8 9 -16 6 -19 -2 -3 1 -8 8 -11 10 -3
13 6 12 33 0 21 4 37 11 37 16 0 13 -61 -5 -82 -9 -11 -10 -16 -2 -11 6 4 12
4 13 -1 3 -44 3 -91 -1 -90 -3 1 -5 -2 -5 -8 0 -5 5 -9 11 -7 7 1 11 -5 9 -15
-1 -10 2 -26 7 -37 7 -12 7 -16 0 -12 -5 3 -12 -1 -16 -9 -3 -9 0 -15 9 -15 7
0 16 -4 19 -9 4 -5 -4 -7 -16 -4 l-23 5 23 -17 c12 -9 20 -21 17 -26 -4 -5 -1
-9 5 -9 7 0 10 -7 7 -15 -4 -8 -2 -17 3 -20 6 -3 5 -16 0 -31 -7 -17 -7 -23 0
-19 12 7 9 -23 -5 -45 -8 -13 -7 -13 8 -1 9 7 14 18 10 24 -3 6 -1 7 6 3 6 -4
8 -12 5 -18 -12 -18 -13 -58 -2 -58 5 0 7 8 3 19 -3 11 1 24 12 32 17 13 17
13 4 -4 -13 -16 -13 -20 -1 -27 8 -5 18 -6 24 -3 5 3 6 1 2 -6 -4 -6 -11 -9
-16 -6 -4 3 -10 -4 -13 -15 -5 -18 -3 -18 22 -3 20 11 22 12 9 0 -25 -20 -22
-30 5 -21 22 6 22 6 -2 -15 -13 -11 -19 -21 -13 -21 7 0 12 -7 12 -15 0 -8 6
-15 13 -15 8 0 7 -4 -3 -10 -11 -7 -11 -10 -2 -10 7 0 10 -5 6 -12 -4 -7 -3
-8 5 -4 6 4 14 0 17 -8 3 -9 11 -16 16 -16 6 0 4 7 -3 17 -13 15 -12 15 9 2
12 -8 18 -15 12 -17 -5 -2 -10 -13 -10 -24 0 -15 4 -18 23 -13 22 7 22 7 2
-10 -20 -16 -20 -16 3 -11 13 2 21 2 18 -1 -3 -4 0 -13 7 -22 11 -14 10 -14
-6 -2 -9 8 -20 11 -24 7 -3 -3 -1 -6 6 -6 7 0 9 -5 6 -10 -4 -6 -3 -10 2 -9
28 5 36 -2 17 -16 -19 -15 -19 -15 1 -8 11 3 25 10 31 14 6 5 11 3 11 -6 0 -8
-4 -12 -9 -9 -4 3 -8 -2 -8 -11 0 -10 6 -15 13 -12 8 3 20 1 28 -5 11 -8 10
-9 -3 -4 -12 3 -18 0 -18 -10 0 -10 7 -13 27 -9 26 5 26 5 5 -4 -26 -12 -28
-17 -7 -19 8 -1 22 -3 30 -4 8 -1 12 -5 9 -9 -2 -4 2 -9 8 -12 7 -2 10 -8 5
-12 -4 -5 -14 0 -22 11 -8 10 -15 13 -15 7 0 -7 11 -20 25 -29 14 -9 22 -21
19 -26 -4 -6 2 -6 13 1 24 12 34 5 26 -16 -4 -11 -2 -14 8 -11 8 3 13 11 11
17 -1 7 2 9 9 5 9 -5 5 -13 -10 -26 -26 -20 -21 -24 10 -8 15 8 21 7 25 -5 3
-8 11 -12 17 -8 6 4 7 1 2 -7 -6 -10 -11 -10 -20 4 -11 14 -14 14 -24 2 -9
-11 -9 -16 0 -22 8 -4 9 -3 5 4 -4 7 -3 12 3 12 5 0 13 -5 16 -10 4 -6 16 -8
28 -4 20 6 21 5 7 -11 -14 -16 -13 -17 6 -11 24 7 44 -11 47 -42 1 -12 6 -18
15 -15 10 4 11 8 2 13 -7 4 -1 7 14 7 14 0 26 -4 26 -9 0 -5 -4 -6 -10 -3 -5
3 -10 -1 -10 -9 0 -8 5 -18 12 -22 6 -4 8 -3 5 3 -3 5 0 10 8 10 10 0 11 -5 4
-19 -12 -23 -1 -24 18 -1 11 14 13 15 12 3 -1 -8 1 -23 5 -32 7 -16 10 -16 27
5 12 13 18 16 17 7 -2 -8 5 -14 17 -14 11 0 24 -6 28 -13 5 -8 14 -10 20 -7 7
4 9 4 5 -1 -4 -4 0 -14 10 -22 9 -8 12 -12 6 -9 -6 3 -11 -1 -11 -8 0 -7 6
-13 13 -13 7 0 11 4 9 8 -3 3 1 12 9 18 11 9 13 5 10 -21 -3 -26 -1 -29 7 -15
13 22 21 22 48 -3 22 -18 25 -18 48 -3 13 9 23 12 22 7 -4 -21 2 -28 11 -14 7
11 10 11 10 2 0 -7 5 -10 12 -6 7 4 8 3 4 -5 -4 -6 -11 -9 -15 -7 -4 3 -13 0
-21 -6 -12 -8 -12 -9 3 -4 9 3 17 1 17 -4 0 -5 9 -2 19 7 11 9 17 21 14 26 -4
6 -1 7 6 3 9 -6 8 -12 -4 -26 -18 -20 -6 -34 21 -23 13 5 15 3 9 -7 -5 -9 -4
-11 4 -6 18 12 2 27 -22 21 -20 -5 -20 -5 -4 5 12 7 22 8 30 2 7 -5 22 -8 35
-7 13 1 25 -2 28 -7 3 -5 0 -7 -7 -6 -6 2 -13 -3 -14 -10 -2 -7 -1 -8 1 -3 3
5 17 7 32 5 17 -3 22 -1 14 4 -8 6 -1 8 23 8 20 -1 34 -5 31 -11 -2 -6 7 -11
19 -11 13 0 22 3 20 7 -3 3 13 6 35 5 40 -1 52 -10 28 -19 -10 -4 -10 -6 -1
-6 7 -1 17 8 23 19 12 22 27 22 97 -3 24 -8 40 -10 36 -4 -3 5 0 7 8 5 8 -3
13 -11 11 -18 -3 -11 0 -11 12 -1 16 13 12 36 -4 26 -5 -3 -11 -1 -15 4 -7 12
26 7 54 -8 14 -8 22 -8 27 1 4 6 3 8 -4 4 -6 -3 -13 -3 -15 1 -3 5 8 9 25 10
17 0 34 6 38 13 5 9 9 9 14 1 4 -6 3 -11 -1 -11 -5 0 -18 -7 -29 -16 -18 -14
-18 -15 4 -4 12 6 22 8 22 4 0 -3 7 -1 15 6 8 6 19 9 25 5 14 -9 13 8 -2 25
-11 12 -10 12 4 1 13 -10 18 -9 26 5 8 15 9 15 15 -1 4 -9 11 -13 17 -10 5 3
10 1 10 -6 0 -8 5 -6 13 4 6 10 26 18 44 20 17 1 29 5 26 10 -7 12 12 8 27 -5
12 -11 12 -10 1 4 -11 15 -10 17 8 15 12 -1 21 -6 21 -11 0 -6 7 0 16 12 14
21 41 22 29 1 -10 -15 2 -10 16 8 8 10 9 14 2 10 -6 -4 -15 -3 -18 3 -5 8 -11
7 -21 -1 -12 -10 -13 -9 -8 5 4 11 14 14 35 11 17 -3 29 -1 29 5 0 6 -4 9 -8
6 -4 -2 -14 0 -22 5 -11 7 -7 8 13 5 19 -3 30 0 34 10 4 11 8 12 13 4 5 -8 12
-7 24 5 9 9 14 20 11 25 -3 5 -1 11 4 14 5 3 7 -8 6 -24 -2 -24 0 -28 11 -19
7 6 11 16 8 24 -3 7 0 16 7 21 7 4 10 3 6 -2 -3 -6 3 -15 14 -22 11 -7 19 -8
19 -2 0 5 -4 10 -10 10 -5 0 -10 5 -10 11 0 5 5 7 10 4 6 -3 10 -1 10 5 0 6 5
8 12 4 7 -4 8 -3 4 4 -6 10 15 17 28 10 2 -2 13 5 23 15 11 9 22 15 24 12 3
-2 6 5 6 17 2 20 1 20 -13 2 -14 -18 -15 -18 -5 2 6 12 7 24 4 28 -3 3 -2 6 4
6 5 0 15 -10 21 -23 7 -12 11 -15 11 -7 -1 8 0 24 1 35 2 17 3 17 10 -5 6 -18
8 -20 9 -7 1 12 6 16 14 11 6 -4 3 3 -8 16 -11 13 -14 20 -6 15 9 -5 19 -2 28
10 7 11 13 14 13 9 0 -6 -5 -15 -11 -21 -7 -7 -6 -12 4 -16 9 -3 14 1 13 11 0
10 5 16 14 14 10 -3 9 3 -5 19 l-20 22 24 -12 c18 -10 25 -10 35 0 6 6 6 9 1
6 -6 -3 -17 -2 -25 4 -11 6 -5 8 18 5 26 -3 30 -1 21 10 -8 9 -7 18 1 31 8 13
10 13 7 2 -3 -9 1 -16 8 -16 7 0 11 6 8 14 -3 7 0 20 7 28 7 8 9 15 4 15 -5 0
-1 5 8 11 10 5 15 17 12 27 -5 13 -4 14 4 3 8 -10 10 -11 14 -1 2 8 12 14 22
16 12 2 16 -2 12 -12 -3 -9 -2 -12 5 -9 6 4 8 13 5 21 -3 7 5 20 17 29 14 10
17 15 7 15 -13 0 -13 1 0 9 8 6 18 7 22 5 5 -3 8 -2 7 3 -4 22 2 34 14 27 6
-4 3 3 -8 16 l-20 23 25 -6 c21 -5 22 -4 10 6 -8 7 -16 19 -18 27 -3 11 1 10
16 -3 13 -12 22 -15 27 -7 3 6 1 9 -6 8 -6 -2 -14 3 -17 11 -3 9 0 11 8 6 10
-6 12 -2 7 14 -5 19 -3 20 10 9 14 -12 15 -11 5 9 -18 33 -14 38 8 12 20 -23
20 -22 -1 16 -18 33 -18 37 -3 25 16 -14 17 -13 12 5 -4 17 0 21 21 20 21 0
26 5 25 23 -1 12 3 22 9 22 5 0 -1 10 -14 22 -18 16 -20 20 -6 15 29 -11 38 2
21 29 -17 25 -7 33 15 11 10 -10 11 -8 5 7 -6 15 -4 17 6 11 8 -5 11 -4 6 3
-3 6 2 15 11 21 10 6 13 11 7 11 -6 0 -17 -7 -24 -15 -7 -8 -18 -15 -24 -15
-6 0 -5 4 3 9 13 8 13 12 0 28 -13 16 -13 17 3 4 15 -11 19 -11 24 3 3 9 9 14
13 12 4 -3 7 6 7 20 0 19 -4 23 -19 18 -13 -4 -17 -2 -13 5 4 6 14 11 22 11 8
0 14 5 14 11 0 5 -6 7 -12 3 -8 -5 -7 0 2 11 8 10 10 16 4 12 -6 -3 -11 1 -11
9 0 8 5 13 11 11 13 -5 14 62 1 83 -6 9 -4 11 5 5 8 -5 11 -3 8 6 -3 8 -10 14
-15 14 -6 0 -15 4 -20 8 -4 5 -3 8 2 7 28 -6 36 0 25 19 -7 14 -7 22 2 27 6 4
8 3 4 -4 -3 -6 -2 -13 3 -17 6 -3 8 6 5 21 -3 18 -1 23 7 18 8 -4 9 -3 5 5 -6
9 -11 9 -22 0 -12 -10 -13 -9 -8 6 5 11 4 16 -3 12 -5 -3 -10 0 -10 8 0 8 4
12 9 9 4 -3 8 0 8 5 0 6 -6 11 -12 11 -9 0 -9 3 -3 8 15 10 12 38 -3 34 -10
-2 -10 2 0 17 7 11 15 18 19 15 4 -2 10 0 13 5 4 5 2 12 -3 15 -4 3 -8 24 -7
46 2 48 -7 68 -26 54 -8 -5 -7 -2 2 6 17 18 24 40 13 41 -25 2 -46 8 -51 15
-4 4 1 4 11 1 19 -7 24 8 5 17 -7 3 0 3 15 1 23 -3 27 -1 17 10 -6 7 -20 12
-31 10 -11 -2 -17 0 -14 6 4 5 10 7 15 4 5 -3 11 -1 14 4 3 5 -3 11 -13 14
-12 3 -21 15 -23 33 -2 19 -8 28 -18 26 -11 -3 -10 1 3 16 14 15 15 21 5 25
-10 4 -10 7 1 15 12 9 12 13 2 26 -8 9 -19 16 -25 16 -7 0 -6 -4 2 -9 11 -6 9
-9 -6 -13 -16 -5 -19 -1 -16 22 2 16 4 32 6 37 1 4 -3 18 -10 29 -6 12 -8 24
-5 28 3 3 -1 6 -11 6 -16 0 -15 -3 4 -30 12 -16 16 -30 10 -30 -6 0 -8 -5 -4
-12 4 -7 3 -8 -5 -4 -6 4 -9 11 -6 16 3 5 0 20 -7 32 -7 13 -11 29 -10 36 2 7
-3 11 -10 10 -6 -2 -12 2 -13 7 0 6 -6 25 -14 43 -12 28 -16 31 -30 20 -14
-11 -14 -11 -4 3 7 9 12 18 10 20 -1 3 8 -7 21 -21 l23 -25 -12 28 c-12 27
-20 31 -49 27 -11 -1 -10 3 5 21 11 12 15 19 8 15 -14 -8 -36 27 -25 39 4 5 1
5 -5 1 -8 -4 -13 -1 -13 8 0 19 -11 20 -29 4 -11 -11 -12 -10 -6 1 6 11 4 13
-10 7 -14 -5 -15 -3 -7 6 7 9 6 17 -3 25 -11 10 -15 10 -19 0 -3 -7 -3 -2 0
10 4 19 2 22 -13 16 -16 -6 -17 -5 -3 12 8 10 10 16 3 12 -6 -4 -13 -1 -16 5
-3 10 -8 10 -23 -2 -17 -14 -18 -14 -6 2 10 13 10 17 0 22 -7 3 -2 3 12 0 19
-4 22 -3 10 5 -8 6 -25 11 -37 11 -13 0 -24 8 -28 20 -3 11 -11 20 -16 20 -6
0 -7 -4 -4 -10 4 -6 -1 -7 -11 -3 -12 4 -14 8 -6 11 20 6 -6 32 -26 26 -16 -5
-16 -5 -1 8 15 12 15 15 1 28 -14 13 -15 12 -9 -3 3 -9 2 -17 -3 -17 -6 0 -10
7 -10 16 0 9 -5 12 -12 8 -8 -5 -9 -1 -5 12 7 18 6 18 -7 1 -12 -15 -14 -15
-19 -2 -4 9 -13 12 -24 9 -15 -5 -15 -4 -3 4 10 8 18 8 27 0 8 -6 13 -6 13 -1
0 5 -11 16 -25 23 -13 7 -22 18 -18 23 3 6 1 7 -5 4 -15 -10 -43 3 -35 16 3 6
1 7 -6 3 -9 -6 -9 -12 1 -24 11 -15 11 -15 -3 -5 -9 7 -18 10 -22 7 -3 -3 -10
4 -16 15 -7 13 -18 18 -29 15 -11 -4 -13 -3 -5 3 8 6 9 14 3 23 -7 10 -10 11
-10 3 0 -7 -5 -13 -11 -13 -5 0 -7 5 -3 11 5 8 -1 10 -20 7 -14 -3 -29 -1 -32
4 -3 5 -13 3 -22 -4 -10 -8 -13 -9 -9 -1 4 6 3 14 -3 18 -6 4 -8 10 -5 14 2 5
-7 13 -21 20 -14 6 -23 7 -19 1 3 -6 -1 -7 -9 -4 -10 4 -16 1 -16 -7 0 -7 -3
-9 -6 -6 -4 4 -1 13 5 21 9 11 9 16 0 22 -8 4 -9 3 -5 -4 6 -11 -5 -15 -30
-11 -4 0 -10 -5 -14 -12 -5 -8 -15 3 -30 32 -11 24 -19 34 -17 22 3 -13 1 -23
-5 -23 -5 0 -7 -4 -4 -8 3 -5 -1 -9 -9 -9 -9 0 -11 4 -6 11 11 15 10 46 -2 46
-5 0 -7 -6 -4 -14 3 -8 -1 -20 -9 -27 -12 -10 -15 -10 -12 2 2 8 -3 13 -10 11
-8 -1 -11 2 -7 8 3 6 11 7 17 4 7 -5 8 -2 4 5 -5 7 -11 10 -14 7 -3 -3 -11 -1
-18 4 -8 8 -11 7 -10 -2 0 -7 -3 -13 -9 -13 -5 0 -9 7 -8 15 1 13 0 13 -10 -1
-7 -9 -18 -14 -26 -11 -9 3 -11 0 -6 -8 5 -9 4 -11 -4 -6 -6 4 -9 12 -6 17 4
5 1 10 -4 10 -21 3 -26 4 -38 12 -6 4 -15 2 -18 -4 -4 -5 -14 -8 -22 -5 -10 4
-13 2 -10 -8 5 -11 -1 -12 -28 -3 -19 5 -31 15 -28 20 4 6 1 7 -6 3 -7 -5 -10
-14 -7 -22 3 -8 1 -14 -4 -14 -6 0 -10 9 -10 20 0 11 -5 20 -11 20 -6 0 -9 -7
-6 -15 4 -8 1 -17 -5 -21 -6 -4 -8 -3 -4 4 3 6 2 13 -4 17 -5 3 -10 -1 -10 -9
0 -8 -4 -17 -9 -20 -4 -3 -8 4 -7 16 0 12 -6 23 -14 25 -13 4 -13 3 0 -6 13
-9 12 -11 -5 -11 -11 0 -26 4 -33 9 -20 12 -63 -10 -57 -29 4 -13 4 -13 -8 0
-7 8 -24 21 -37 29 -20 10 -22 11 -12 0z m132 -23 c0 -1 -7 -3 -15 -3 -8 0
-15 5 -15 11 0 6 -5 4 -10 -4 -5 -8 -10 -10 -10 -4 0 18 12 24 31 13 11 -5 19
-11 19 -13z m245 12 c5 4 5 2 2 -5 -6 -9 -18 -10 -45 -4 -2 1 0 6 3 11 5 8 11
8 19 1 7 -6 17 -7 21 -3z m-385 -14 c0 -8 -19 -13 -24 -6 -3 5 1 9 9 9 8 0 15
-2 15 -3z m-475 -174 c-3 -5 -1 -10 5 -10 7 0 6 -5 -2 -14 -17 -18 -32 2 -16
21 12 15 22 17 13 3z m1434 -19 c10 -7 7 -9 -12 -8 -14 1 -23 5 -20 10 6 9 15
9 32 -2z m-1529 -77 c0 -8 -19 -13 -24 -6 -3 5 1 9 9 9 8 0 15 -2 15 -3z m-59
-47 c-10 -9 -11 -8 -5 6 3 10 9 15 12 12 3 -3 0 -11 -7 -18z m1918 -180 c12
-15 12 -17 -3 -11 -9 3 -16 13 -16 22 0 8 1 13 3 11 1 -2 9 -12 16 -22z m26
-37 c3 -5 2 -10 -4 -10 -5 0 -13 5 -16 10 -3 6 -2 10 4 10 5 0 13 -4 16 -10z
m160 -280 c-3 -5 -12 -10 -18 -10 -7 0 -6 4 3 10 19 12 23 12 15 0z m-2498
-111 c-8 -13 -13 -15 -18 -7 -10 15 -4 25 15 25 11 0 12 -4 3 -18z m2568 -189
c3 -5 1 -10 -4 -10 -6 0 -11 5 -11 10 0 6 2 10 4 10 3 0 8 -4 11 -10z m10 -60
c3 -6 -1 -7 -9 -4 -18 7 -21 14 -7 14 6 0 13 -4 16 -10z m-2632 -76 c-7 -3 -9
-12 -6 -20 3 -10 -2 -14 -17 -14 -22 0 -23 1 -5 20 10 11 23 20 29 19 7 0 7
-2 -1 -5z m2606 -361 c-6 -7 -15 -10 -20 -7 -13 8 -3 21 15 21 12 0 13 -4 5
-14z m-38 -110 c12 -16 12 -17 -2 -6 -9 7 -20 9 -24 5 -5 -4 -5 -1 -1 6 9 16
11 15 27 -5z m-15 -67 c0 -23 -17 -29 -33 -11 -4 4 -3 5 4 1 6 -3 14 -2 18 4
3 5 0 10 -7 10 -9 0 -9 3 2 10 8 5 15 10 16 10 0 0 0 -11 0 -24z m-2411 -126
c3 -6 -1 -7 -9 -4 -18 7 -21 14 -7 14 6 0 13 -4 16 -10z m5 -30 c0 -5 -2 -10
-4 -10 -3 0 -8 5 -11 10 -3 6 -1 10 4 10 6 0 11 -4 11 -10z m2294 -65 c-6 -14
-35 -35 -48 -35 -3 0 -6 5 -6 11 0 5 4 8 9 5 4 -3 16 3 26 14 22 24 26 25 19
5z m-44 -60 c-7 -8 -17 -15 -22 -15 -11 0 14 29 26 30 5 0 3 -7 -4 -15z
m-2033 -160 c0 -8 -4 -12 -9 -9 -5 3 -6 10 -3 15 9 13 12 11 12 -6z m1716
-142 c-5 -12 -3 -14 8 -8 8 5 11 4 6 0 -4 -5 -14 -10 -22 -11 -12 -2 -12 2 -5
17 13 23 22 25 13 2z m-1433 -83 c0 -5 -2 -10 -4 -10 -3 0 -8 5 -11 10 -3 6
-1 10 4 10 6 0 11 -4 11 -10z m1166 -82 c3 -4 -1 -5 -10 -4 -8 1 -18 5 -22 8
-3 4 1 5 10 4 8 -1 18 -5 22 -8z m-122 -32 c-10 -8 -21 -12 -24 -9 -3 2 3 9
13 14 9 6 14 16 11 22 -5 8 -3 8 6 0 12 -11 11 -15 -6 -27z m65 31 c-2 -1 -13
-9 -24 -17 -19 -14 -19 -14 -6 3 7 9 18 17 24 17 6 0 8 -1 6 -3z m-349 -79 c0
-4 -4 -8 -9 -8 -6 0 -12 4 -15 8 -3 5 1 9 9 9 8 0 15 -4 15 -9z"/>
<path d="M1415 2700 c3 -5 8 -10 11 -10 2 0 4 5 4 10 0 6 -5 10 -11 10 -5 0
-7 -4 -4 -10z"/>
<path d="M1740 2642 c0 -5 7 -9 15 -9 8 0 15 4 15 9 0 4 -7 8 -15 8 -8 0 -15
-4 -15 -8z"/>
<path d="M1875 2608 c1 -13 6 -21 11 -19 10 3 7 21 -5 34 -4 4 -7 -3 -6 -15z"/>
<path d="M820 2591 c-8 -6 -18 -7 -24 -4 -5 3 -6 1 -2 -5 5 -8 13 -9 25 -2 10
5 22 6 26 2 5 -4 5 -1 1 6 -8 14 -7 14 -26 3z"/>
<path d="M1910 2580 c0 -5 7 -7 15 -4 8 4 15 8 15 10 0 2 -7 4 -15 4 -8 0 -15
-4 -15 -10z"/>
<path d="M1995 2560 c3 -5 11 -10 16 -10 6 0 7 5 4 10 -3 6 -11 10 -16 10 -6
0 -7 -4 -4 -10z"/>
<path d="M2016 2525 c4 -8 8 -15 10 -15 2 0 4 7 4 15 0 8 -4 15 -10 15 -5 0
-7 -7 -4 -15z"/>
<path d="M535 2440 c-3 -5 -1 -10 4 -10 6 0 11 5 11 10 0 6 -2 10 -4 10 -3 0
-8 -4 -11 -10z"/>
<path d="M2220 2405 c0 -12 61 -67 67 -61 4 3 1 6 -5 6 -7 0 -12 7 -12 15 0 8
-4 15 -9 15 -5 0 -17 7 -25 16 -9 8 -16 13 -16 9z"/>
<path d="M315 2230 c-3 -5 -1 -10 4 -10 6 0 11 5 11 10 0 6 -2 10 -4 10 -3 0
-8 -4 -11 -10z"/>
<path d="M2529 2048 c-8 -27 -5 -36 9 -30 10 4 12 7 4 10 -7 2 -10 8 -6 13 3
5 3 9 0 9 -3 0 -6 -1 -7 -2z"/>
<path d="M2585 1900 c-3 -6 1 -7 9 -4 18 7 21 14 7 14 -6 0 -13 -4 -16 -10z"/>
<path d="M2635 1790 c10 -11 20 -20 23 -20 3 0 -3 9 -13 20 -10 11 -20 20 -23
20 -3 0 3 -9 13 -20z"/>
<path d="M2645 1750 c-3 -6 1 -7 9 -4 18 7 21 14 7 14 -6 0 -13 -4 -16 -10z"/>
<path d="M17 1517 c3 -4 8 -6 11 -3 3 3 11 1 19 -6 11 -8 12 -7 7 5 -3 9 -14
15 -24 14 -10 -1 -16 -5 -13 -10z"/>
<path d="M2680 1466 c0 -2 7 -6 15 -10 8 -3 15 -1 15 4 0 6 -7 10 -15 10 -8 0
-15 -2 -15 -4z"/>
<path d="M2694 1423 c1 -7 4 -14 7 -15 2 -2 3 -1 2 1 -2 2 4 9 13 15 13 10 13
12 -4 12 -11 0 -19 -6 -18 -13z"/>
<path d="M16 1254 c-9 -23 -4 -24 17 -2 13 14 14 18 3 18 -8 0 -17 -7 -20 -16z"/>
<path d="M40 1119 c0 -5 5 -7 10 -4 6 3 10 8 10 11 0 2 -4 4 -10 4 -5 0 -10
-5 -10 -11z"/>
<path d="M56 1051 c-4 -5 -2 -12 4 -16 6 -4 8 -10 6 -14 -3 -4 1 -8 9 -8 12 0
12 3 2 15 -6 8 -10 17 -9 19 2 3 1 7 -1 9 -3 3 -8 1 -11 -5z"/>
<path d="M73 993 c9 -2 14 -9 11 -15 -4 -7 -2 -8 5 -4 15 10 4 26 -17 25 -15
-1 -15 -2 1 -6z"/>
<path d="M2420 562 c0 -5 -11 -22 -25 -38 -13 -15 -22 -30 -20 -32 6 -6 54 51
55 66 0 6 -2 12 -5 12 -3 0 -5 -4 -5 -8z"/>
<path d="M542 307 c-8 -10 -5 -13 14 -15 16 -1 24 3 22 10 -6 18 -24 20 -36 5z"/>
<path d="M745 191 c-3 -6 1 -11 9 -11 8 0 22 -8 32 -17 12 -12 16 -13 13 -4
-8 22 -46 44 -54 32z"/>
<path d="M1990 180 c0 -5 5 -10 10 -10 6 0 10 5 10 10 0 6 -4 10 -10 10 -5 0
-10 -4 -10 -10z"/>
<path d="M870 122 c0 -5 7 -9 15 -9 8 0 12 4 9 9 -7 10 -24 10 -24 0z"/>
<path d="M950 99 c0 -5 5 -7 10 -4 6 3 10 8 10 11 0 2 -4 4 -10 4 -5 0 -10 -5
-10 -11z"/>
<path d="M1686 75 c-9 -26 -7 -32 5 -12 6 10 9 21 6 23 -2 3 -7 -2 -11 -11z"/>
<path d="M1185 49 c-4 -6 -5 -12 -2 -15 2 -3 7 2 10 11 7 17 1 20 -8 4z"/>
<path d="M1353 46 c3 -8 1 -17 -6 -20 -9 -3 -8 -5 1 -5 7 -1 10 -6 6 -13 -4
-7 -3 -8 5 -4 6 4 9 11 6 16 -3 4 3 14 12 21 15 13 16 11 10 -11 -6 -24 -5
-24 8 -6 17 23 16 25 -20 32 -21 4 -26 2 -22 -10z"/>
<path d="M1274 39 c-4 -7 -3 -9 4 -5 5 3 13 0 15 -6 4 -9 6 -10 6 -1 1 17 -16
25 -25 12z"/>
</g>
</svg>
